<svg id="Layer_1" data-name="Layer 1" xmlns="http://www.w3.org/2000/svg" viewBox="0 0 1080 1080"><defs><style>.cls-1{fill:#111316;}</style></defs><path class="cls-1" d="M707.26,371.05H839.91V690.62H707.26Z"/><path class="cls-1" d="M4.65,690.62c0-6.64-1.18-12-1.18-17.66q0-140.41,0-280.84c.14-74.11,30.78-132.94,88.38-177,47.55-36.35,103-52.73,161.08-59.21,35.17-3.92,70.8-3.59,108.55-5.27V268.19c-30,2.23-61.23,1.81-91.26,7.59-25.37,4.88-51.21,13.67-73.65,26.53-44.51,27.14-59.06,48.76-59.06,119.94.46,25.23-.18,53.08,0,78.31.28,38,5.24,37,38.46,36.75,86.68.11,204.64,1.69,291.32,1.7h0V164.55h17.93c145,0,290-.87,434.93.73a261.08,261.08,0,0,1,87.37,16.27c46,17.32,69,54.47,69,105.28q0,192.48,0,385v19.36H926V672.83q0-156.21,0-312.4c0-46.65-21.48-73.36-67.35-74.64-78.35-2.2-156.8-.6-235.21-.53-.88,0-1.76.86-4,2,0,133.75.72,267.83.72,403.35Z"/><path class="cls-1" d="M537.88,815.81c-4-20.19-8-40.37-12.19-61.43h42.74l50.07,175H461.79c9.49-36,18.45-71,28.33-105.79.91-3.18,7.54-6.25,11.78-6.67,12-1.19,24.2-1,36.31-1.31-5.22,22.81-10.43,45.63-15.84,69.33h35.49C550.88,860.78,544.38,838.29,537.88,815.81Z"/><path class="cls-1" d="M116.59,756.68v41.11c-7.84,0-15.25,0-22.65,0-29.39.17-48.59,17.46-48.45,43.61S64.37,884,94.4,884.24c7,0,14,0,21.8,0v40.66A87.48,87.48,0,0,1,16.13,795.7C36.39,762.29,72.75,747.89,116.59,756.68Z"/><path class="cls-1" d="M964.19,927.5V883.57h73.74c-6.32-8.73-9.3-13.6-13-17.81-12.57-14.35-26.5-27.58-37.83-42.9-14.51-19.64-19.88-42.65-16.94-68.48h41.28c-5.93,39.77,21.84,59.67,45,82.23,12.2,11.89,20.8,24.88,20.13,43.12-.88,24.29-18.53,45.91-41.9,47.44C1011.71,928.67,988.61,927.5,964.19,927.5Z"/><path class="cls-1" d="M736.08,927.5V883.57h73.74c-6.32-8.73-9.3-13.6-13-17.81-12.57-14.35-26.5-27.58-37.83-42.9-14.51-19.64-19.88-42.65-16.94-68.48h41.27c-5.92,39.77,21.85,59.67,45,82.23,12.2,11.89,20.8,24.88,20.13,43.12-.88,24.29-18.53,45.91-41.9,47.44C783.6,928.67,760.5,927.5,736.08,927.5Z"/><path class="cls-1" d="M233.36,928.85V754.16h44.25V884.48c26.48,0,41.76-.54,67-.54v44.37C304.9,928.31,274.32,928.85,233.36,928.85Z"/></svg>