<svg id="Layer_1" data-name="Layer 1" xmlns="http://www.w3.org/2000/svg" viewBox="0 0 1080 1080"><defs><style>.cls-1{fill:#111316;}</style></defs><path class="cls-1" d="M642.53,436.43h81.32v195.9H642.53Z"/><path class="cls-1" d="M211.82,632.33c0-4.07-.72-7.35-.72-10.82q0-86.09,0-172.16c.09-45.44,18.87-81.5,54.18-108.49,29.15-22.28,63.15-32.32,98.74-36.29,21.57-2.41,43.41-2.21,66.55-3.24v72.05c-18.42,1.36-37.54,1.11-55.94,4.65-15.56,3-31.4,8.38-45.15,16.26-27.29,16.64-36.21,29.9-36.21,73.53.28,15.46-.11,32.53,0,48,.17,23.29,3.21,22.7,23.58,22.53,53.13.07,125.45,1,178.58,1h0V309.84h11c88.88,0,177.76-.53,266.62.45a160.14,160.14,0,0,1,53.56,10c28.23,10.62,42.32,33.39,42.31,64.54q0,118,0,236v11.87H776.64V621.43q0-95.76,0-191.51c0-28.6-13.17-45-41.29-45.76-48-1.34-96.12-.36-144.19-.32-.54,0-1.08.52-2.43,1.23,0,82,.43,164.19.43,247.26Z"/><path class="cls-1" d="M538.7,709.07c-2.46-12.37-4.91-24.74-7.47-37.65h26.2c10.1,35.28,20.28,70.86,30.69,107.25H492.06c5.81-22.07,11.31-43.54,17.36-64.86.56-1.94,4.62-3.83,7.22-4.08,7.38-.73,14.84-.6,22.26-.81-3.19,14-6.39,28-9.71,42.5H551C546.67,736.64,542.69,722.86,538.7,709.07Z"/><path class="cls-1" d="M280.44,672.83V698c-4.81,0-9.34,0-13.88,0-18,.11-29.79,10.71-29.7,26.74s11.57,26.13,30,26.25c4.28,0,8.56,0,13.36,0V776a53.62,53.62,0,0,1-61.34-79.2C231.28,676.27,253.57,667.44,280.44,672.83Z"/><path class="cls-1" d="M800,777.54V750.61h45.2c-3.87-5.35-5.7-8.33-8-10.91-7.71-8.8-16.25-16.91-23.19-26.3-8.9-12-12.19-26.15-10.39-42H829c-3.63,24.38,13.4,36.58,27.57,50.41,7.47,7.29,12.75,15.25,12.34,26.43-.54,14.89-11.36,28.14-25.69,29.08C829.16,778.26,815,777.54,800,777.54Z"/><path class="cls-1" d="M660.2,777.54V750.61h45.21c-3.88-5.35-5.71-8.33-8-10.91-7.7-8.8-16.25-16.91-23.19-26.3-8.9-12-12.19-26.15-10.39-42h25.31c-3.63,24.38,13.39,36.58,27.56,50.41,7.48,7.29,12.75,15.25,12.34,26.43-.54,14.89-11.35,28.14-25.68,29.08C689.33,778.26,675.17,777.54,660.2,777.54Z"/><path class="cls-1" d="M352,778.37V671.28h27.13v79.89c16.24,0,25.6-.33,41.07-.33V778C395.88,778,377.13,778.37,352,778.37Z"/></svg>